{
  "accessors": [
    {
      "bufferView": 2,
      "componentType": 5126,
      "count": 1200,
      "max": [
        0.22550001740455627,
        0.22550001740455627,
        0.014999988488852978
      ],
      "min": [
        -0.22550001740455627,
        -0.22550001740455627,
        -1.1175870895385742e-08
      ],
      "type": "VEC3"
    },
    {
      "bufferView": 2,
      "byteOffset": 14400,
      "componentType": 5126,
      "count": 1200,
      "max": [
        0.9809421300888062,
        0.9809448719024658,
        1.0
      ],
      "min": [
        -0.9809421300888062,
        -0.9809448719024658,
        -1.0
      ],
      "type": "VEC3"
    },
    {
      "bufferView": 1,
      "componentType": 5126,
      "count": 1200,
      "max": [
        0.9903761148452759,
        0.5018939971923828
      ],
      "min": [
        0.0096239373087883,
        0.009623885154724121
      ],
      "type": "VEC2"
    },
    {
      "bufferView": 0,
      "componentType": 5125,
      "count": 3594,
      "type": "SCALAR"
    },
    {
      "bufferView": 2,
      "byteOffset": 28800,
      "componentType": 5126,
      "count": 81,
      "max": [
        0.17000000178813934,
        0.17000000178813934,
        0.014999988488852978
      ],
      "min": [
        -0.17000000178813934,
        -0.17000000178813934,
        0.014999988488852978
      ],
      "type": "VEC3"
    },
    {
      "bufferView": 2,
      "byteOffset": 29772,
      "componentType": 5126,
      "count": 81,
      "max": [
        5.4878597666174755e-08,
        0.0,
        1.0
      ],
      "min": [
        -5.4878597666174755e-08,
        0.0,
        1.0
      ],
      "type": "VEC3"
    },
    {
      "bufferView": 3,
      "componentType": 5126,
      "count": 81,
      "max": [
        0.6190956830978394,
        -0.7853156328201294,
        3.3975059210433756e-08,
        1.0
      ],
      "min": [
        0.6190938353538513,
        -0.785317063331604,
        -3.3975062763147434e-08,
        1.0
      ],
      "type": "VEC4"
    },
    {
      "bufferView": 1,
      "byteOffset": 9600,
      "componentType": 5126,
      "count": 81,
      "max": [
        0.9950494766235352,
        0.9950494766235352
      ],
      "min": [
        0.004950493574142456,
        0.004950493574142456
      ],
      "type": "VEC2"
    },
    {
      "bufferView": 1,
      "byteOffset": 10248,
      "componentType": 5126,
      "count": 81,
      "max": [
        0.9950494766235352,
        0.9950494766235352
      ],
      "min": [
        0.004950493574142456,
        0.004950493574142456
      ],
      "type": "VEC2"
    },
    {
      "bufferView": 1,
      "byteOffset": 10896,
      "componentType": 5126,
      "count": 81,
      "max": [
        0.9950494766235352,
        0.9950494766235352
      ],
      "min": [
        0.004950493574142456,
        0.004950493574142456
      ],
      "type": "VEC2"
    },
    {
      "bufferView": 0,
      "byteOffset": 14376,
      "componentType": 5125,
      "count": 240,
      "type": "SCALAR"
    },
    {
      "bufferView": 2,
      "byteOffset": 30744,
      "componentType": 5126,
      "count": 9667,
      "max": [
        0.22099615633487701,
        0.22099615633487701,
        0.015499988570809364
      ],
      "min": [
        -0.22099615633487701,
        -0.22099615633487701,
        0.014499988406896591
      ],
      "type": "VEC3"
    },
    {
      "bufferView": 2,
      "byteOffset": 146748,
      "componentType": 5126,
      "count": 9667,
      "max": [
        1.0,
        1.0,
        1.0
      ],
      "min": [
        -1.0,
        -1.0,
        0.0
      ],
      "type": "VEC3"
    },
    {
      "bufferView": 1,
      "byteOffset": 11544,
      "componentType": 5126,
      "count": 9667,
      "max": [
        1.0,
        1.0
      ],
      "min": [
        0.0,
        0.0
      ],
      "type": "VEC2"
    },
    {
      "bufferView": 0,
      "byteOffset": 15336,
      "componentType": 5125,
      "count": 30813,
      "type": "SCALAR"
    }
  ],
  "asset": {
    "extras": {
      "author": "WuYin (https://sketchfab.com/WuYinCC03D)",
      "license": "CC-BY-4.0 (http://creativecommons.org/licenses/by/4.0/)",
      "source": "https://sketchfab.com/3d-models/dart-boardcc0-5e77aaac630d48bb9943e5a705385c98",
      "title": "dart_board(CC0)"
    },
    "generator": "Sketchfab-15.0.0",
    "version": "2.0"
  },
  "bufferViews": [
    {
      "buffer": 0,
      "byteLength": 138588,
      "name": "floatBufferViews",
      "target": 34963
    },
    {
      "buffer": 0,
      "byteLength": 88880,
      "byteOffset": 138588,
      "byteStride": 8,
      "name": "floatBufferViews",
      "target": 34962
    },
    {
      "buffer": 0,
      "byteLength": 262752,
      "byteOffset": 227468,
      "byteStride": 12,
      "name": "floatBufferViews",
      "target": 34962
    },
    {
      "buffer": 0,
      "byteLength": 1296,
      "byteOffset": 490220,
      "byteStride": 16,
      "name": "floatBufferViews",
      "target": 34962
    }
  ],
  "buffers": [
    {
      "byteLength": 491516,
      "uri": "scene.bin"
    }
  ],
  "images": [
    {
      "uri": "textures/dart_board_baseColor.png"
    },
    {
      "uri": "textures/dart_board_normal.png"
    }
  ],
  "materials": [
    {
      "doubleSided": true,
      "name": "plastic",
      "pbrMetallicRoughness": {
        "baseColorFactor": [
          0.01,
          0.01,
          0.01,
          1.0
        ],
        "metallicFactor": 0.0,
        "roughnessFactor": 0.997
      }
    },
    {
      "doubleSided": true,
      "name": "dart_board",
      "normalTexture": {
        "index": 1,
        "scale": 0.95
      },
      "pbrMetallicRoughness": {
        "baseColorTexture": {
          "index": 0
        },
        "metallicFactor": 0.0
      }
    },
    {
      "doubleSided": true,
      "name": "metal",
      "pbrMetallicRoughness": {
        "metallicFactor": 0.0,
        "roughnessFactor": 0.1
      }
    }
  ],
  "meshes": [
    {
      "name": "dart_board_plastic_0",
      "primitives": [
        {
          "attributes": {
            "NORMAL": 1,
            "POSITION": 0,
            "TEXCOORD_0": 2
          },
          "indices": 3,
          "material": 0,
          "mode": 4
        }
      ]
    },
    {
      "name": "dart_board_dart_board_0",
      "primitives": [
        {
          "attributes": {
            "NORMAL": 5,
            "POSITION": 4,
            "TANGENT": 6,
            "TEXCOORD_0": 7,
            "TEXCOORD_1": 8,
            "TEXCOORD_2": 9
          },
          "indices": 10,
          "material": 1,
          "mode": 4
        }
      ]
    },
    {
      "name": "dart_board_metal_0",
      "primitives": [
        {
          "attributes": {
            "NORMAL": 12,
            "POSITION": 11,
            "TEXCOORD_0": 13
          },
          "indices": 14,
          "material": 2,
          "mode": 4
        }
      ]
    }
  ],
  "nodes": [
    {
      "children": [
        1
      ],
      "matrix": [
        1.0,
        0.0,
        0.0,
        0.0,
        0.0,
        2.220446049250313e-16,
        -1.0,
        0.0,
        0.0,
        1.0,
        2.220446049250313e-16,
        0.0,
        0.0,
        0.0,
        0.0,
        1.0
      ],
      "name": "Sketchfab_model"
    },
    {
      "children": [
        2
      ],
      "matrix": [
        0.009999999776482582,
        0.0,
        0.0,
        0.0,
        0.0,
        0.0,
        0.009999999776482582,
        0.0,
        0.0,
        -0.009999999776482582,
        0.0,
        0.0,
        0.0,
        0.0,
        0.0,
        1.0
      ],
      "name": "dart_board.fbx"
    },
    {
      "children": [
        3
      ],
      "name": "RootNode"
    },
    {
      "children": [
        4,
        5,
        6
      ],
      "matrix": [
        100.0,
        0.0,
        0.0,
        0.0,
        0.0,
        -2.8212996916465727e-05,
        -99.99999999999602,
        0.0,
        0.0,
        99.99999999999602,
        -2.8212996916465727e-05,
        0.0,
        0.0,
        0.0,
        0.0,
        1.0
      ],
      "name": "dart_board"
    },
    {
      "mesh": 0,
      "name": "dart_board_plastic_0"
    },
    {
      "mesh": 1,
      "name": "dart_board_dart_board_0"
    },
    {
      "mesh": 2,
      "name": "dart_board_metal_0"
    }
  ],
  "samplers": [
    {
      "magFilter": 9729,
      "minFilter": 9987,
      "wrapS": 10497,
      "wrapT": 10497
    }
  ],
  "scene": 0,
  "scenes": [
    {
      "name": "Sketchfab_Scene",
      "nodes": [
        0
      ]
    }
  ],
  "textures": [
    {
      "sampler": 0,
      "source": 0
    },
    {
      "sampler": 0,
      "source": 1
    }
  ]
}
